G04 ================== begin FILE IDENTIFICATION RECORD ==================*
G04 Layout Name:  C:/Users/Bianca/Desktop/Placa rutata-detector de cutremur.brd*
G04 Film Name:    ASM_TOP*
G04 File Format:  Gerber RS274X*
G04 File Origin:  Cadence Allegro 17.2-S025*
G04 Origin Date:  Sat Jun 03 21:54:06 2023*
G04 *
G04 Layer:  REF DES/ASSEMBLY_TOP*
G04 Layer:  PACKAGE GEOMETRY/ASSEMBLY_TOP*
G04 Layer:  COMPONENT VALUE/ASSEMBLY_TOP*
G04 *
G04 Offset:    (0.00 0.00)*
G04 Mirror:    No*
G04 Mode:      Positive*
G04 Rotation:  0*
G04 FullContactRelief:  No*
G04 UndefLineWidth:     0.00*
G04 ================== end FILE IDENTIFICATION RECORD ====================*
%FSLAX25Y25*MOIN*%
%IR0*IPPOS*OFA0.00000B0.00000*MIA0B0*SFA1.00000B1.00000*%
%ADD10C,.006*%
%ADD11C,.008*%
%ADD12C,.00394*%
%ADD13C,.00787*%
G75*
%LPD*%
G75*
G54D10*
G01X1299500Y833500D02*
X1290500D01*
G01D02*
Y811500D01*
G01D02*
X1299500D01*
G01D02*
Y833500D01*
G01X1320500Y811500D02*
X1329500D01*
G01D02*
Y833500D01*
G01D02*
X1320500D01*
G01D02*
Y811500D01*
G54D11*
G01X1183300Y940667D02*
X1182550Y940200D01*
X1182050Y939640D01*
X1181800Y938987D01*
X1182050Y938240D01*
X1182550Y937680D01*
X1183300Y937120D01*
X1184300Y936933D01*
X1189300D01*
G01X1181800Y932400D02*
X1189300D01*
X1187800Y933520D01*
G01X1181800D02*
Y931280D01*
G01X1201500Y910900D02*
X1194000D01*
X1195500Y909780D01*
G01X1201500D02*
Y912020D01*
G01X1194000Y917300D02*
X1194250Y916553D01*
X1194875Y915993D01*
X1195625Y915620D01*
X1196625Y915340D01*
X1197750Y915247D01*
X1198875Y915340D01*
X1199875Y915620D01*
X1200625Y915993D01*
X1201250Y916553D01*
X1201500Y917300D01*
X1201250Y918047D01*
X1200625Y918607D01*
X1199875Y918980D01*
X1198875Y919260D01*
X1197750Y919353D01*
X1196625Y919260D01*
X1195625Y918980D01*
X1194875Y918607D01*
X1194250Y918047D01*
X1194000Y917300D01*
G01Y923700D02*
X1194250Y922953D01*
X1194875Y922393D01*
X1195625Y922020D01*
X1196625Y921740D01*
X1197750Y921647D01*
X1198875Y921740D01*
X1199875Y922020D01*
X1200625Y922393D01*
X1201250Y922953D01*
X1201500Y923700D01*
X1201250Y924447D01*
X1200625Y925007D01*
X1199875Y925380D01*
X1198875Y925660D01*
X1197750Y925753D01*
X1196625Y925660D01*
X1195625Y925380D01*
X1194875Y925007D01*
X1194250Y924447D01*
X1194000Y923700D01*
G01X1196500Y928513D02*
X1200000D01*
X1200875Y928887D01*
X1201375Y929447D01*
X1201500Y930100D01*
X1201375Y930753D01*
X1200875Y931313D01*
X1200000Y931687D01*
G01X1201500D02*
X1196500D01*
G01X1201500Y934727D02*
X1194000D01*
Y938273D01*
G01X1197625Y936967D02*
Y934727D01*
G01X1201750Y941220D02*
X1194000Y944580D01*
G01X1201500Y949300D02*
X1194000D01*
X1195500Y948180D01*
G01X1201500D02*
Y950420D01*
G01X1198375Y953927D02*
X1197500Y954580D01*
X1197000Y955140D01*
X1196750Y955887D01*
X1197000Y956540D01*
X1197500Y957007D01*
X1198250Y957380D01*
X1199125Y957473D01*
X1199875Y957380D01*
X1200625Y957007D01*
X1201250Y956447D01*
X1201500Y955793D01*
X1201250Y955047D01*
X1200500Y954393D01*
X1199375Y954020D01*
X1198125Y953927D01*
X1196500Y954113D01*
X1195625Y954393D01*
X1194750Y954860D01*
X1194125Y955513D01*
X1194000Y956167D01*
X1194250Y956820D01*
X1194875Y957287D01*
G01X1194000Y959767D02*
X1201500Y962100D01*
X1194000Y964433D01*
G01X1203900Y859200D02*
Y866700D01*
X1202780Y865200D01*
G01Y859200D02*
X1205020D01*
G01X1208713D02*
Y866700D01*
G01X1211700Y864200D02*
X1208713Y861325D01*
G01X1209927Y862450D02*
X1211887Y859200D01*
G01X1201733Y864400D02*
Y871900D01*
X1204067D01*
X1204813Y871525D01*
X1205280Y871025D01*
X1205467Y870025D01*
X1205280Y869025D01*
X1204720Y868400D01*
X1204067Y868025D01*
X1201733D01*
G01X1204067D02*
X1205467Y864400D01*
G01X1208227Y867525D02*
X1208880Y868400D01*
X1209440Y868900D01*
X1210187Y869150D01*
X1210840Y868900D01*
X1211307Y868400D01*
X1211680Y867650D01*
X1211773Y866775D01*
X1211680Y866025D01*
X1211307Y865275D01*
X1210747Y864650D01*
X1210093Y864400D01*
X1209347Y864650D01*
X1208693Y865400D01*
X1208320Y866525D01*
X1208227Y867775D01*
X1208413Y869400D01*
X1208693Y870275D01*
X1209160Y871150D01*
X1209813Y871775D01*
X1210467Y871900D01*
X1211120Y871650D01*
X1211587Y871025D01*
G01X1217625Y939853D02*
X1217250Y939293D01*
X1217000Y938640D01*
Y937893D01*
X1217375Y937053D01*
X1218000Y936400D01*
X1218750Y935933D01*
X1220000Y935560D01*
X1221125Y935467D01*
X1222250Y935653D01*
X1223000Y935933D01*
X1223750Y936493D01*
X1224250Y937147D01*
X1224500Y937800D01*
Y938453D01*
X1224250Y939107D01*
X1223875Y939667D01*
X1223375Y940133D01*
G01X1218250Y942427D02*
X1217500Y942987D01*
X1217125Y943640D01*
X1217000Y944387D01*
X1217250Y945320D01*
X1217875Y945973D01*
X1218625Y946160D01*
X1219375Y946067D01*
X1220000Y945693D01*
X1221250Y943827D01*
X1222125Y942987D01*
X1223375Y942427D01*
X1224500Y942240D01*
Y946160D01*
G01X1261233Y774400D02*
X1258900Y781900D01*
X1256567Y774400D01*
G01X1254367Y781900D02*
Y774400D01*
X1252033D01*
X1251287Y774775D01*
X1250820Y775275D01*
X1250633Y776275D01*
X1250820Y777275D01*
X1251380Y777900D01*
X1252033Y778275D01*
X1254367D01*
G01X1252033D02*
X1250633Y781900D01*
G01X1246100D02*
Y774400D01*
X1247220Y775900D01*
G01Y781900D02*
X1244980D01*
G01X1241700Y859200D02*
Y866700D01*
X1240580Y865200D01*
G01Y859200D02*
X1242820D01*
G01X1246327Y865450D02*
X1246887Y866200D01*
X1247540Y866575D01*
X1248287Y866700D01*
X1249220Y866450D01*
X1249873Y865825D01*
X1250060Y865075D01*
X1249967Y864325D01*
X1249593Y863700D01*
X1247727Y862450D01*
X1246887Y861575D01*
X1246327Y860325D01*
X1246140Y859200D01*
X1250060D01*
G01X1252913D02*
Y866700D01*
G01X1255900Y864200D02*
X1252913Y861325D01*
G01X1254127Y862450D02*
X1256087Y859200D01*
G01X1242733Y864400D02*
Y871900D01*
X1245067D01*
X1245813Y871525D01*
X1246280Y871025D01*
X1246467Y870025D01*
X1246280Y869025D01*
X1245720Y868400D01*
X1245067Y868025D01*
X1242733D01*
G01X1245067D02*
X1246467Y864400D01*
G01X1249227Y870650D02*
X1249787Y871400D01*
X1250440Y871775D01*
X1251187Y871900D01*
X1252120Y871650D01*
X1252773Y871025D01*
X1252960Y870275D01*
X1252867Y869525D01*
X1252493Y868900D01*
X1250627Y867650D01*
X1249787Y866775D01*
X1249227Y865525D01*
X1249040Y864400D01*
X1252960D01*
G01X1234000Y928233D02*
X1241500D01*
Y931967D01*
G01Y938367D02*
Y934633D01*
X1234000D01*
Y938367D01*
G01X1237625Y936873D02*
Y934633D01*
G01X1241500Y940847D02*
X1234000D01*
Y942713D01*
X1234375Y943460D01*
X1234875Y944020D01*
X1235625Y944487D01*
X1236500Y944860D01*
X1237750Y944953D01*
X1239000Y944860D01*
X1239875Y944487D01*
X1240625Y944020D01*
X1241125Y943460D01*
X1241500Y942713D01*
Y940847D01*
G01X1264500Y935747D02*
X1257000D01*
Y937613D01*
X1257375Y938360D01*
X1257875Y938920D01*
X1258625Y939387D01*
X1259500Y939760D01*
X1260750Y939853D01*
X1262000Y939760D01*
X1262875Y939387D01*
X1263625Y938920D01*
X1264125Y938360D01*
X1264500Y937613D01*
Y935747D01*
G01Y944200D02*
X1257000D01*
X1258500Y943080D01*
G01X1264500D02*
Y945320D01*
G01X1298147Y779300D02*
Y773925D01*
X1298520Y772800D01*
X1299267Y772050D01*
X1300200Y771800D01*
X1301133Y772050D01*
X1301880Y772800D01*
X1302253Y773925D01*
Y779300D01*
G01X1304827Y778050D02*
X1305387Y778800D01*
X1306040Y779175D01*
X1306787Y779300D01*
X1307720Y779050D01*
X1308373Y778425D01*
X1308560Y777675D01*
X1308467Y776925D01*
X1308093Y776300D01*
X1306227Y775050D01*
X1305387Y774175D01*
X1304827Y772925D01*
X1304640Y771800D01*
X1308560D01*
G01X1311700Y832867D02*
X1319200D01*
Y830533D01*
X1318825Y829787D01*
X1318325Y829320D01*
X1317325Y829133D01*
X1316325Y829320D01*
X1315700Y829880D01*
X1315325Y830533D01*
Y832867D01*
G01Y830533D02*
X1311700Y829133D01*
G01Y823480D02*
X1319200D01*
X1313825Y826933D01*
Y822267D01*
G01X1308300Y812133D02*
X1300800D01*
Y814467D01*
X1301175Y815213D01*
X1301675Y815680D01*
X1302675Y815867D01*
X1303675Y815680D01*
X1304300Y815120D01*
X1304675Y814467D01*
Y812133D01*
G01Y814467D02*
X1308300Y815867D01*
G01X1307175Y818347D02*
X1307800Y818907D01*
X1308175Y819560D01*
X1308300Y820400D01*
X1308050Y821240D01*
X1307550Y821893D01*
X1306675Y822360D01*
X1305675Y822453D01*
X1304675Y822267D01*
X1304050Y821800D01*
X1303550Y821147D01*
X1303425Y820493D01*
X1303550Y819840D01*
X1304050Y819000D01*
X1300800Y819280D01*
Y821800D01*
G01X1312500Y888067D02*
X1305000D01*
Y884333D01*
G01Y882227D02*
X1312500D01*
X1306250Y879800D01*
X1312500Y877373D01*
X1305000D01*
G01Y873587D02*
X1306625Y873400D01*
X1308000Y873120D01*
X1309250Y872747D01*
X1310625Y872280D01*
X1312500Y871533D01*
Y875267D01*
G01X1305000Y865880D02*
X1312500D01*
X1307125Y869333D01*
Y864667D01*
G01X1305000Y860600D02*
X1312500D01*
X1311000Y861720D01*
G01X1305000D02*
Y859480D01*
G01X1326400Y877853D02*
X1321025D01*
X1319900Y877480D01*
X1319150Y876733D01*
X1318900Y875800D01*
X1319150Y874867D01*
X1319900Y874120D01*
X1321025Y873747D01*
X1326400D01*
G01X1320400Y871453D02*
X1319525Y870893D01*
X1319025Y870147D01*
X1318900Y869307D01*
X1319025Y868560D01*
X1319650Y867813D01*
X1320400Y867347D01*
X1321150Y867253D01*
X1322025Y867440D01*
X1322650Y868093D01*
X1322900Y868747D01*
Y869587D01*
G01Y868747D02*
X1323275Y868187D01*
X1323900Y867720D01*
X1324650Y867533D01*
X1325400Y867720D01*
X1326025Y868187D01*
X1326400Y869027D01*
X1326275Y869867D01*
X1325775Y870707D01*
G01X1311000Y935300D02*
Y936700D01*
G01Y936000D02*
X1314500D01*
G01Y935300D02*
Y936700D01*
G01X1311292Y941583D02*
X1311117Y941233D01*
X1311000Y940825D01*
Y940358D01*
X1311175Y939833D01*
X1311467Y939425D01*
X1311817Y939133D01*
X1312400Y938900D01*
X1312925Y938842D01*
X1313450Y938958D01*
X1313800Y939133D01*
X1314150Y939483D01*
X1314383Y939892D01*
X1314500Y940300D01*
Y940708D01*
X1314383Y941117D01*
X1314208Y941467D01*
X1313975Y941758D01*
G01X1311583Y943492D02*
X1311233Y943842D01*
X1311058Y944250D01*
X1311000Y944717D01*
X1311117Y945300D01*
X1311408Y945708D01*
X1311758Y945825D01*
X1312108Y945767D01*
X1312400Y945533D01*
X1312983Y944367D01*
X1313392Y943842D01*
X1313975Y943492D01*
X1314500Y943375D01*
Y945825D01*
G01X1337927Y828250D02*
X1338487Y829000D01*
X1339140Y829375D01*
X1339887Y829500D01*
X1340820Y829250D01*
X1341473Y828625D01*
X1341660Y827875D01*
X1341567Y827125D01*
X1341193Y826500D01*
X1339327Y825250D01*
X1338487Y824375D01*
X1337927Y823125D01*
X1337740Y822000D01*
X1341660D01*
G01X1344327Y828250D02*
X1344887Y829000D01*
X1345540Y829375D01*
X1346287Y829500D01*
X1347220Y829250D01*
X1347873Y828625D01*
X1348060Y827875D01*
X1347967Y827125D01*
X1347593Y826500D01*
X1345727Y825250D01*
X1344887Y824375D01*
X1344327Y823125D01*
X1344140Y822000D01*
X1348060D01*
G01X1352500Y829500D02*
X1351753Y829250D01*
X1351193Y828625D01*
X1350820Y827875D01*
X1350540Y826875D01*
X1350447Y825750D01*
X1350540Y824625D01*
X1350820Y823625D01*
X1351193Y822875D01*
X1351753Y822250D01*
X1352500Y822000D01*
X1353247Y822250D01*
X1353807Y822875D01*
X1354180Y823625D01*
X1354460Y824625D01*
X1354553Y825750D01*
X1354460Y826875D01*
X1354180Y827875D01*
X1353807Y828625D01*
X1353247Y829250D01*
X1352500Y829500D01*
G01X1357313Y822000D02*
Y827000D01*
G01Y825750D02*
X1357687Y826375D01*
X1358247Y826875D01*
X1358993Y827000D01*
X1359647Y826875D01*
X1360207Y826375D01*
X1360487Y825500D01*
Y822000D01*
G01X1363527D02*
Y829500D01*
X1367073D01*
G01X1365767Y825875D02*
X1363527D01*
G01X1325500Y933408D02*
X1322000D01*
X1325500Y936092D01*
X1322000D01*
G01X1325500Y940217D02*
Y937883D01*
X1322000D01*
Y940217D01*
G01X1323692Y939283D02*
Y937883D01*
G01X1324975Y942067D02*
X1325267Y942417D01*
X1325442Y942825D01*
X1325500Y943350D01*
X1325383Y943875D01*
X1325150Y944283D01*
X1324742Y944575D01*
X1324275Y944633D01*
X1323808Y944517D01*
X1323517Y944225D01*
X1323283Y943817D01*
X1323225Y943408D01*
X1323283Y943000D01*
X1323517Y942475D01*
X1322000Y942650D01*
Y944225D01*
G01X1324975Y946367D02*
X1325267Y946717D01*
X1325442Y947125D01*
X1325500Y947650D01*
X1325383Y948175D01*
X1325150Y948583D01*
X1324742Y948875D01*
X1324275Y948933D01*
X1323808Y948817D01*
X1323517Y948525D01*
X1323283Y948117D01*
X1323225Y947708D01*
X1323283Y947300D01*
X1323517Y946775D01*
X1322000Y946950D01*
Y948525D01*
G01X1324975Y950667D02*
X1325267Y951017D01*
X1325442Y951425D01*
X1325500Y951950D01*
X1325383Y952475D01*
X1325150Y952883D01*
X1324742Y953175D01*
X1324275Y953233D01*
X1323808Y953117D01*
X1323517Y952825D01*
X1323283Y952417D01*
X1323225Y952008D01*
X1323283Y951600D01*
X1323517Y951075D01*
X1322000Y951250D01*
Y952825D01*
G01X1369375Y822147D02*
X1369750Y822707D01*
X1370000Y823360D01*
Y824107D01*
X1369625Y824947D01*
X1369000Y825600D01*
X1368250Y826067D01*
X1367000Y826440D01*
X1365875Y826533D01*
X1364750Y826347D01*
X1364000Y826067D01*
X1363250Y825507D01*
X1362750Y824853D01*
X1362500Y824200D01*
Y823547D01*
X1362750Y822893D01*
X1363125Y822333D01*
X1363625Y821867D01*
G01X1362500Y817800D02*
X1370000D01*
X1368500Y818920D01*
G01X1362500D02*
Y816680D01*
G01X1372043Y870869D02*
X1364543D01*
G01X1372043Y873016D02*
Y868722D01*
G01X1364543Y864469D02*
X1372043D01*
X1370543Y865589D01*
G01X1364543D02*
Y863349D01*
G01X1372067Y927000D02*
Y919500D01*
X1369733D01*
X1368987Y919875D01*
X1368520Y920375D01*
X1368333Y921375D01*
X1368520Y922375D01*
X1369080Y923000D01*
X1369733Y923375D01*
X1372067D01*
G01X1369733D02*
X1368333Y927000D01*
G01X1363987D02*
X1363800Y925375D01*
X1363520Y924000D01*
X1363147Y922750D01*
X1362680Y921375D01*
X1361933Y919500D01*
X1365667D01*
G01X1360933Y945000D02*
Y952500D01*
X1363267D01*
X1364013Y952125D01*
X1364480Y951625D01*
X1364667Y950625D01*
X1364480Y949625D01*
X1363920Y949000D01*
X1363267Y948625D01*
X1360933D01*
G01X1363267D02*
X1364667Y945000D01*
G01X1369200D02*
X1369853Y945125D01*
X1370600Y945500D01*
X1371067Y946125D01*
X1371253Y947000D01*
X1371067Y947875D01*
X1370507Y948625D01*
X1369667Y949000D01*
X1368733D01*
X1368173Y949250D01*
X1367707Y949875D01*
X1367520Y950750D01*
X1367800Y951625D01*
X1368453Y952250D01*
X1369200Y952500D01*
X1369947Y952250D01*
X1370600Y951625D01*
X1370880Y950750D01*
X1370693Y949875D01*
X1370227Y949250D01*
X1369667Y949000D01*
X1368733D01*
X1367893Y948625D01*
X1367333Y947875D01*
X1367147Y947000D01*
X1367333Y946125D01*
X1367800Y945500D01*
X1368547Y945125D01*
X1369200Y945000D01*
G01X1390700Y831200D02*
Y838700D01*
X1389580Y837200D01*
G01Y831200D02*
X1391820D01*
G01X1395327Y837450D02*
X1395887Y838200D01*
X1396540Y838575D01*
X1397287Y838700D01*
X1398220Y838450D01*
X1398873Y837825D01*
X1399060Y837075D01*
X1398967Y836325D01*
X1398593Y835700D01*
X1396727Y834450D01*
X1395887Y833575D01*
X1395327Y832325D01*
X1395140Y831200D01*
X1399060D01*
G01X1401913D02*
Y838700D01*
G01X1404900Y836200D02*
X1401913Y833325D01*
G01X1403127Y834450D02*
X1405087Y831200D01*
G01X1391733Y836400D02*
Y843900D01*
X1394067D01*
X1394813Y843525D01*
X1395280Y843025D01*
X1395467Y842025D01*
X1395280Y841025D01*
X1394720Y840400D01*
X1394067Y840025D01*
X1391733D01*
G01X1394067D02*
X1395467Y836400D01*
G01X1400000D02*
Y843900D01*
X1398880Y842400D01*
G01Y836400D02*
X1401120D01*
G01X1388620Y884200D02*
Y891700D01*
X1385167Y886325D01*
X1389833D01*
G01X1393900Y883950D02*
X1393713Y884075D01*
Y884325D01*
X1393900Y884450D01*
X1394087Y884325D01*
Y884075D01*
X1393900Y883950D01*
G01X1400113Y884200D02*
X1400300Y885825D01*
X1400580Y887200D01*
X1400953Y888450D01*
X1401420Y889825D01*
X1402167Y891700D01*
X1398433D01*
G01X1405113Y884200D02*
Y891700D01*
G01X1408100Y889200D02*
X1405113Y886325D01*
G01X1406327Y887450D02*
X1408287Y884200D01*
G01X1391733Y889400D02*
Y896900D01*
X1394067D01*
X1394813Y896525D01*
X1395280Y896025D01*
X1395467Y895025D01*
X1395280Y894025D01*
X1394720Y893400D01*
X1394067Y893025D01*
X1391733D01*
G01X1394067D02*
X1395467Y889400D01*
G01X1397947Y890900D02*
X1398507Y890025D01*
X1399253Y889525D01*
X1400093Y889400D01*
X1400840Y889525D01*
X1401587Y890150D01*
X1402053Y890900D01*
X1402147Y891650D01*
X1401960Y892525D01*
X1401307Y893150D01*
X1400653Y893400D01*
X1399813D01*
G01X1400653D02*
X1401213Y893775D01*
X1401680Y894400D01*
X1401867Y895150D01*
X1401680Y895900D01*
X1401213Y896525D01*
X1400373Y896900D01*
X1399533Y896775D01*
X1398693Y896275D01*
G01X1409800Y940867D02*
X1417300D01*
Y938627D01*
X1416925Y937880D01*
X1416050Y937320D01*
X1415050Y937133D01*
X1414050Y937320D01*
X1413300Y937787D01*
X1412925Y938627D01*
Y940867D01*
G01X1417300Y934373D02*
Y930827D01*
X1409800Y934373D01*
Y930827D01*
G01Y926200D02*
X1417300D01*
X1415800Y927320D01*
G01X1409800D02*
Y925080D01*
G54D12*
G01X1370100Y928673D02*
Y925327D01*
X1363900D01*
Y928673D01*
X1370100D01*
G01X1362900Y943327D02*
Y946673D01*
X1369100D01*
Y943327D01*
X1362900D01*
G54D13*
G01X1372024Y868551D02*
X1370449Y866976D01*
G01X1372024Y869339D02*
Y868551D01*
G01X1369661Y866976D02*
X1372024Y869339D01*
G01X1368874Y866976D02*
X1369661D01*
G01X1372024Y870126D02*
X1368874Y866976D01*
G01X1372024Y870913D02*
Y870126D01*
G01X1368087Y866976D02*
X1372024Y870913D01*
G01X1367299Y866976D02*
X1368087D01*
G01X1372024Y871701D02*
X1367299Y866976D01*
G01X1371236Y867370D02*
X1371630Y867764D01*
G01X1358244Y880756D02*
X1372024D01*
Y866976D01*
X1358244D01*
Y880756D01*
G01X1371630Y879969D02*
X1371236Y880362D01*
G01X1367299Y880756D02*
X1372024Y876031D01*
Y876819D01*
X1368087Y880756D01*
X1368874D01*
X1372024Y877606D01*
Y878394D01*
X1369661Y880756D01*
X1370449D01*
X1372024Y879181D01*
M02*
