G04 ================== begin FILE IDENTIFICATION RECORD ==================*
G04 Layout Name:  C:/Users/Bianca/Desktop/Placa rutata-detector de cutremur.brd*
G04 Film Name:    SS_TOP*
G04 File Format:  Gerber RS274X*
G04 File Origin:  Cadence Allegro 17.2-S025*
G04 Origin Date:  Sat Jun 03 21:54:06 2023*
G04 *
G04 Layer:  USER PART NUMBER/SILKSCREEN_TOP*
G04 Layer:  TOLERANCE/SILKSCREEN_TOP*
G04 Layer:  REF DES/SILKSCREEN_TOP*
G04 Layer:  PACKAGE GEOMETRY/SILKSCREEN_TOP*
G04 Layer:  DEVICE TYPE/SILKSCREEN_TOP*
G04 Layer:  COMPONENT VALUE/SILKSCREEN_TOP*
G04 Layer:  BOARD GEOMETRY/SILKSCREEN_TOP*
G04 *
G04 Offset:    (0.00 0.00)*
G04 Mirror:    No*
G04 Mode:      Positive*
G04 Rotation:  0*
G04 FullContactRelief:  No*
G04 UndefLineWidth:     0.00*
G04 ================== end FILE IDENTIFICATION RECORD ====================*
%FSLAX25Y25*MOIN*%
%IR0*IPPOS*OFA0.00000B0.00000*MIA0B0*SFA1.00000B1.00000*%
%ADD10C,.006*%
%ADD11C,.008*%
%ADD12C,.00787*%
G75*
%LPD*%
G75*
G54D10*
G01X1299500Y833500D02*
X1290500D01*
G01D02*
Y811500D01*
G01D02*
X1299500D01*
G01D02*
Y833500D01*
G01X1330375Y780333D02*
X1330708Y780125D01*
X1331083Y780000D01*
X1331417D01*
X1331750Y780125D01*
X1332000Y780333D01*
X1332125Y780625D01*
X1332042Y780917D01*
X1331833Y781167D01*
X1331458Y781333D01*
X1330958Y781417D01*
X1330667Y781583D01*
X1330542Y781875D01*
X1330625Y782167D01*
X1330833Y782375D01*
X1331125Y782500D01*
X1331417D01*
X1331708Y782417D01*
X1331958Y782208D01*
G01X1334350Y782500D02*
Y780000D01*
G01X1333767Y781667D02*
X1334933D01*
G01X1336867Y780000D02*
Y781667D01*
G01Y781333D02*
X1337075Y781500D01*
X1337283Y781625D01*
X1337575Y781667D01*
X1337783Y781625D01*
X1338033Y781500D01*
G01X1340550Y780000D02*
X1340300Y780042D01*
X1340050Y780208D01*
X1339883Y780500D01*
X1339800Y780833D01*
X1339883Y781167D01*
X1340050Y781458D01*
X1340300Y781625D01*
X1340550Y781667D01*
X1340800Y781625D01*
X1341050Y781458D01*
X1341217Y781167D01*
X1341258Y780833D01*
X1341217Y780500D01*
X1341050Y780208D01*
X1340800Y780042D01*
X1340550Y780000D01*
G01X1343025Y781125D02*
X1344358D01*
X1344233Y781417D01*
X1344025Y781583D01*
X1343733Y781667D01*
X1343442Y781625D01*
X1343192Y781500D01*
X1343025Y781208D01*
X1342942Y780958D01*
Y780708D01*
X1343025Y780458D01*
X1343233Y780208D01*
X1343483Y780042D01*
X1343775Y780000D01*
X1344067Y780083D01*
X1344358Y780333D01*
G01X1349058Y780000D02*
Y782500D01*
X1350642D01*
G01X1350058Y781292D02*
X1349058D01*
G01X1352950Y780000D02*
Y782500D01*
G01X1356050Y780000D02*
X1355800Y780042D01*
X1355550Y780208D01*
X1355383Y780500D01*
X1355300Y780833D01*
X1355383Y781167D01*
X1355550Y781458D01*
X1355800Y781625D01*
X1356050Y781667D01*
X1356300Y781625D01*
X1356550Y781458D01*
X1356717Y781167D01*
X1356758Y780833D01*
X1356717Y780500D01*
X1356550Y780208D01*
X1356300Y780042D01*
X1356050Y780000D01*
G01X1358567D02*
Y781667D01*
G01Y781333D02*
X1358775Y781500D01*
X1358983Y781625D01*
X1359275Y781667D01*
X1359483Y781625D01*
X1359733Y781500D01*
G01X1362250Y781667D02*
Y780000D01*
G01Y782333D02*
X1362167Y782375D01*
Y782458D01*
X1362250Y782500D01*
X1362333Y782458D01*
Y782375D01*
X1362250Y782333D01*
G01X1364642Y780000D02*
Y781667D01*
G01Y781250D02*
X1364808Y781458D01*
X1365058Y781625D01*
X1365392Y781667D01*
X1365683Y781625D01*
X1365933Y781458D01*
X1366058Y781167D01*
Y780000D01*
G01X1372050D02*
Y782500D01*
X1370508Y780708D01*
X1372592D01*
G01X1373858Y782083D02*
X1374108Y782333D01*
X1374400Y782458D01*
X1374733Y782500D01*
X1375150Y782417D01*
X1375442Y782208D01*
X1375525Y781958D01*
X1375483Y781708D01*
X1375317Y781500D01*
X1374483Y781083D01*
X1374108Y780792D01*
X1373858Y780375D01*
X1373775Y780000D01*
X1375525D01*
G01X1376833Y780500D02*
X1377083Y780208D01*
X1377417Y780042D01*
X1377792Y780000D01*
X1378125Y780042D01*
X1378458Y780250D01*
X1378667Y780500D01*
X1378708Y780750D01*
X1378625Y781042D01*
X1378333Y781250D01*
X1378042Y781333D01*
X1377667D01*
G01X1378042D02*
X1378292Y781458D01*
X1378500Y781667D01*
X1378583Y781917D01*
X1378500Y782167D01*
X1378292Y782375D01*
X1377917Y782500D01*
X1377542Y782458D01*
X1377167Y782292D01*
G01X1379933Y780000D02*
Y782500D01*
X1380767D01*
X1381100Y782375D01*
X1381350Y782208D01*
X1381558Y781958D01*
X1381725Y781667D01*
X1381767Y781250D01*
X1381725Y780833D01*
X1381558Y780542D01*
X1381350Y780292D01*
X1381100Y780125D01*
X1380767Y780000D01*
X1379933D01*
G01X1330333Y777500D02*
Y775708D01*
X1330500Y775333D01*
X1330833Y775083D01*
X1331250Y775000D01*
X1331667Y775083D01*
X1332000Y775333D01*
X1332167Y775708D01*
Y777500D01*
G01X1333517Y775000D02*
Y777500D01*
X1334517D01*
X1334850Y777375D01*
X1335100Y777083D01*
X1335183Y776750D01*
X1335100Y776417D01*
X1334892Y776167D01*
X1334517Y776042D01*
X1333517D01*
G01X1337783Y776333D02*
X1337950Y776458D01*
X1338075Y776667D01*
X1338158Y776958D01*
X1338075Y777208D01*
X1337908Y777375D01*
X1337617Y777500D01*
X1336492D01*
Y775000D01*
X1337867D01*
X1338158Y775167D01*
X1338325Y775417D01*
X1338408Y775708D01*
X1338325Y776000D01*
X1338075Y776250D01*
X1337783Y776333D01*
X1336492D01*
G01X1344483Y775000D02*
X1342817D01*
Y777500D01*
X1344483D01*
G01X1343817Y776292D02*
X1342817D01*
G01X1346750Y777500D02*
Y775000D01*
G01X1345792Y777500D02*
X1347708D01*
G01X1349850D02*
Y775000D01*
G01X1348892Y777500D02*
X1350808D01*
G01X1352450D02*
X1353450D01*
G01X1352950D02*
Y775000D01*
G01X1352450D02*
X1353450D01*
G01X1330875Y796958D02*
X1331083Y797500D01*
G01X1331625D02*
X1331417Y796958D01*
G01X1333433Y795000D02*
Y797500D01*
X1334267D01*
X1334600Y797375D01*
X1334850Y797208D01*
X1335058Y796958D01*
X1335225Y796667D01*
X1335267Y796250D01*
X1335225Y795833D01*
X1335058Y795542D01*
X1334850Y795292D01*
X1334600Y795125D01*
X1334267Y795000D01*
X1333433D01*
G01X1336825Y796125D02*
X1338158D01*
X1338033Y796417D01*
X1337825Y796583D01*
X1337533Y796667D01*
X1337242Y796625D01*
X1336992Y796500D01*
X1336825Y796208D01*
X1336742Y795958D01*
Y795708D01*
X1336825Y795458D01*
X1337033Y795208D01*
X1337283Y795042D01*
X1337575Y795000D01*
X1337867Y795083D01*
X1338158Y795333D01*
G01X1340550Y797500D02*
Y795000D01*
G01X1339967Y796667D02*
X1341133D01*
G01X1343025Y796125D02*
X1344358D01*
X1344233Y796417D01*
X1344025Y796583D01*
X1343733Y796667D01*
X1343442Y796625D01*
X1343192Y796500D01*
X1343025Y796208D01*
X1342942Y795958D01*
Y795708D01*
X1343025Y795458D01*
X1343233Y795208D01*
X1343483Y795042D01*
X1343775Y795000D01*
X1344067Y795083D01*
X1344358Y795333D01*
G01X1347417Y796458D02*
X1347125Y796625D01*
X1346875Y796667D01*
X1346542Y796583D01*
X1346292Y796417D01*
X1346125Y796125D01*
X1346083Y795833D01*
X1346125Y795542D01*
X1346292Y795292D01*
X1346542Y795083D01*
X1346875Y795000D01*
X1347167Y795083D01*
X1347417Y795250D01*
G01X1349850Y797500D02*
Y795000D01*
G01X1349267Y796667D02*
X1350433D01*
G01X1352950Y795000D02*
X1352700Y795042D01*
X1352450Y795208D01*
X1352283Y795500D01*
X1352200Y795833D01*
X1352283Y796167D01*
X1352450Y796458D01*
X1352700Y796625D01*
X1352950Y796667D01*
X1353200Y796625D01*
X1353450Y796458D01*
X1353617Y796167D01*
X1353658Y795833D01*
X1353617Y795500D01*
X1353450Y795208D01*
X1353200Y795042D01*
X1352950Y795000D01*
G01X1355467D02*
Y796667D01*
G01Y796333D02*
X1355675Y796500D01*
X1355883Y796625D01*
X1356175Y796667D01*
X1356383Y796625D01*
X1356633Y796500D01*
G01X1363000Y797500D02*
Y795000D01*
G01Y795375D02*
X1362833Y795167D01*
X1362583Y795042D01*
X1362292Y795000D01*
X1361958Y795083D01*
X1361708Y795292D01*
X1361542Y795542D01*
X1361500Y795833D01*
X1361542Y796125D01*
X1361708Y796375D01*
X1361958Y796583D01*
X1362292Y796667D01*
X1362583Y796625D01*
X1362792Y796542D01*
X1363000Y796375D01*
G01X1364725Y796125D02*
X1366058D01*
X1365933Y796417D01*
X1365725Y796583D01*
X1365433Y796667D01*
X1365142Y796625D01*
X1364892Y796500D01*
X1364725Y796208D01*
X1364642Y795958D01*
Y795708D01*
X1364725Y795458D01*
X1364933Y795208D01*
X1365183Y795042D01*
X1365475Y795000D01*
X1365767Y795083D01*
X1366058Y795333D01*
G01X1372217Y796458D02*
X1371925Y796625D01*
X1371675Y796667D01*
X1371342Y796583D01*
X1371092Y796417D01*
X1370925Y796125D01*
X1370883Y795833D01*
X1370925Y795542D01*
X1371092Y795292D01*
X1371342Y795083D01*
X1371675Y795000D01*
X1371967Y795083D01*
X1372217Y795250D01*
G01X1373942Y796667D02*
Y795500D01*
X1374108Y795208D01*
X1374358Y795042D01*
X1374650Y795000D01*
X1374942Y795042D01*
X1375192Y795208D01*
X1375358Y795500D01*
G01Y795000D02*
Y796667D01*
G01X1377750Y797500D02*
Y795000D01*
G01X1377167Y796667D02*
X1378333D01*
G01X1380267Y795000D02*
Y796667D01*
G01Y796333D02*
X1380475Y796500D01*
X1380683Y796625D01*
X1380975Y796667D01*
X1381183Y796625D01*
X1381433Y796500D01*
G01X1383325Y796125D02*
X1384658D01*
X1384533Y796417D01*
X1384325Y796583D01*
X1384033Y796667D01*
X1383742Y796625D01*
X1383492Y796500D01*
X1383325Y796208D01*
X1383242Y795958D01*
Y795708D01*
X1383325Y795458D01*
X1383533Y795208D01*
X1383783Y795042D01*
X1384075Y795000D01*
X1384367Y795083D01*
X1384658Y795333D01*
G01X1385800Y795000D02*
Y796667D01*
G01Y796208D02*
X1385925Y796417D01*
X1386133Y796583D01*
X1386425Y796667D01*
X1386717Y796583D01*
X1386925Y796417D01*
X1387050Y796208D01*
Y795000D01*
G01Y796208D02*
X1387175Y796417D01*
X1387383Y796583D01*
X1387675Y796667D01*
X1387967Y796583D01*
X1388175Y796417D01*
X1388300Y796167D01*
Y795000D01*
G01X1389442Y796667D02*
Y795500D01*
X1389608Y795208D01*
X1389858Y795042D01*
X1390150Y795000D01*
X1390442Y795042D01*
X1390692Y795208D01*
X1390858Y795500D01*
G01Y795000D02*
Y796667D01*
G01X1392667Y795000D02*
Y796667D01*
G01Y796333D02*
X1392875Y796500D01*
X1393083Y796625D01*
X1393375Y796667D01*
X1393583Y796625D01*
X1393833Y796500D01*
G01X1395975Y796958D02*
X1396183Y797500D01*
G01X1396725D02*
X1396517Y796958D01*
G01X1398908Y795833D02*
X1399992D01*
G01X1401758Y797083D02*
X1402008Y797333D01*
X1402300Y797458D01*
X1402633Y797500D01*
X1403050Y797417D01*
X1403342Y797208D01*
X1403425Y796958D01*
X1403383Y796708D01*
X1403217Y796500D01*
X1402383Y796083D01*
X1402008Y795792D01*
X1401758Y795375D01*
X1401675Y795000D01*
X1403425D01*
G01X1405650Y797500D02*
X1405317Y797417D01*
X1405067Y797208D01*
X1404900Y796958D01*
X1404775Y796625D01*
X1404733Y796250D01*
X1404775Y795875D01*
X1404900Y795542D01*
X1405067Y795292D01*
X1405317Y795083D01*
X1405650Y795000D01*
X1405983Y795083D01*
X1406233Y795292D01*
X1406400Y795542D01*
X1406525Y795875D01*
X1406567Y796250D01*
X1406525Y796625D01*
X1406400Y796958D01*
X1406233Y797208D01*
X1405983Y797417D01*
X1405650Y797500D01*
G01X1407958Y797083D02*
X1408208Y797333D01*
X1408500Y797458D01*
X1408833Y797500D01*
X1409250Y797417D01*
X1409542Y797208D01*
X1409625Y796958D01*
X1409583Y796708D01*
X1409417Y796500D01*
X1408583Y796083D01*
X1408208Y795792D01*
X1407958Y795375D01*
X1407875Y795000D01*
X1409625D01*
G01X1410933Y795500D02*
X1411183Y795208D01*
X1411517Y795042D01*
X1411892Y795000D01*
X1412225Y795042D01*
X1412558Y795250D01*
X1412767Y795500D01*
X1412808Y795750D01*
X1412725Y796042D01*
X1412433Y796250D01*
X1412142Y796333D01*
X1411767D01*
G01X1412142D02*
X1412392Y796458D01*
X1412600Y796667D01*
X1412683Y796917D01*
X1412600Y797167D01*
X1412392Y797375D01*
X1412017Y797500D01*
X1411642Y797458D01*
X1411267Y797292D01*
G01X1330292Y790000D02*
Y792500D01*
X1332208Y790000D01*
Y792500D01*
G01X1335100Y790000D02*
Y791667D01*
G01Y791375D02*
X1334933Y791542D01*
X1334683Y791625D01*
X1334392Y791667D01*
X1334100Y791583D01*
X1333850Y791417D01*
X1333683Y791167D01*
X1333600Y790833D01*
X1333683Y790500D01*
X1333850Y790250D01*
X1334100Y790083D01*
X1334392Y790000D01*
X1334683Y790042D01*
X1334933Y790167D01*
X1335100Y790333D01*
G01X1337200Y790000D02*
Y792125D01*
X1337283Y792333D01*
X1337450Y792458D01*
X1337700Y792500D01*
X1337950Y792417D01*
X1338075Y792208D01*
G01X1337575Y791500D02*
X1336742D01*
G01X1340550Y792500D02*
Y790000D01*
G01X1339967Y791667D02*
X1341133D01*
G01X1344400Y790000D02*
Y791667D01*
G01Y791375D02*
X1344233Y791542D01*
X1343983Y791625D01*
X1343692Y791667D01*
X1343400Y791583D01*
X1343150Y791417D01*
X1342983Y791167D01*
X1342900Y790833D01*
X1342983Y790500D01*
X1343150Y790250D01*
X1343400Y790083D01*
X1343692Y790000D01*
X1343983Y790042D01*
X1344233Y790167D01*
X1344400Y790333D01*
G01X1346042Y790000D02*
Y791667D01*
G01Y791250D02*
X1346208Y791458D01*
X1346458Y791625D01*
X1346792Y791667D01*
X1347083Y791625D01*
X1347333Y791458D01*
X1347458Y791167D01*
Y790000D01*
G01X1350600D02*
Y791667D01*
G01Y791375D02*
X1350433Y791542D01*
X1350183Y791625D01*
X1349892Y791667D01*
X1349600Y791583D01*
X1349350Y791417D01*
X1349183Y791167D01*
X1349100Y790833D01*
X1349183Y790500D01*
X1349350Y790250D01*
X1349600Y790083D01*
X1349892Y790000D01*
X1350183Y790042D01*
X1350433Y790167D01*
X1350600Y790333D01*
G01X1352950Y791667D02*
Y790000D01*
G01Y792333D02*
X1352867Y792375D01*
Y792458D01*
X1352950Y792500D01*
X1353033Y792458D01*
Y792375D01*
X1352950Y792333D01*
G01X1356050Y790000D02*
Y792500D01*
G01X1359900Y790000D02*
Y791667D01*
G01Y791375D02*
X1359733Y791542D01*
X1359483Y791625D01*
X1359192Y791667D01*
X1358900Y791583D01*
X1358650Y791417D01*
X1358483Y791167D01*
X1358400Y790833D01*
X1358483Y790500D01*
X1358650Y790250D01*
X1358900Y790083D01*
X1359192Y790000D01*
X1359483Y790042D01*
X1359733Y790167D01*
X1359900Y790333D01*
G01X1365683Y791333D02*
X1365850Y791458D01*
X1365975Y791667D01*
X1366058Y791958D01*
X1365975Y792208D01*
X1365808Y792375D01*
X1365517Y792500D01*
X1364392D01*
Y790000D01*
X1365767D01*
X1366058Y790167D01*
X1366225Y790417D01*
X1366308Y790708D01*
X1366225Y791000D01*
X1365975Y791250D01*
X1365683Y791333D01*
X1364392D01*
G01X1368450Y791667D02*
Y790000D01*
G01Y792333D02*
X1368367Y792375D01*
Y792458D01*
X1368450Y792500D01*
X1368533Y792458D01*
Y792375D01*
X1368450Y792333D01*
G01X1372300Y790000D02*
Y791667D01*
G01Y791375D02*
X1372133Y791542D01*
X1371883Y791625D01*
X1371592Y791667D01*
X1371300Y791583D01*
X1371050Y791417D01*
X1370883Y791167D01*
X1370800Y790833D01*
X1370883Y790500D01*
X1371050Y790250D01*
X1371300Y790083D01*
X1371592Y790000D01*
X1371883Y790042D01*
X1372133Y790167D01*
X1372300Y790333D01*
G01X1373942Y790000D02*
Y791667D01*
G01Y791250D02*
X1374108Y791458D01*
X1374358Y791625D01*
X1374692Y791667D01*
X1374983Y791625D01*
X1375233Y791458D01*
X1375358Y791167D01*
Y790000D01*
G01X1378417Y791458D02*
X1378125Y791625D01*
X1377875Y791667D01*
X1377542Y791583D01*
X1377292Y791417D01*
X1377125Y791125D01*
X1377083Y790833D01*
X1377125Y790542D01*
X1377292Y790292D01*
X1377542Y790083D01*
X1377875Y790000D01*
X1378167Y790083D01*
X1378417Y790250D01*
G01X1381600Y790000D02*
Y791667D01*
G01Y791375D02*
X1381433Y791542D01*
X1381183Y791625D01*
X1380892Y791667D01*
X1380600Y791583D01*
X1380350Y791417D01*
X1380183Y791167D01*
X1380100Y790833D01*
X1380183Y790500D01*
X1380350Y790250D01*
X1380600Y790083D01*
X1380892Y790000D01*
X1381183Y790042D01*
X1381433Y790167D01*
X1381600Y790333D01*
G01X1387550Y790000D02*
Y792500D01*
X1386008Y790708D01*
X1388092D01*
G01X1389358Y792083D02*
X1389608Y792333D01*
X1389900Y792458D01*
X1390233Y792500D01*
X1390650Y792417D01*
X1390942Y792208D01*
X1391025Y791958D01*
X1390983Y791708D01*
X1390817Y791500D01*
X1389983Y791083D01*
X1389608Y790792D01*
X1389358Y790375D01*
X1389275Y790000D01*
X1391025D01*
G01X1392458Y792083D02*
X1392708Y792333D01*
X1393000Y792458D01*
X1393333Y792500D01*
X1393750Y792417D01*
X1394042Y792208D01*
X1394125Y791958D01*
X1394083Y791708D01*
X1393917Y791500D01*
X1393083Y791083D01*
X1392708Y790792D01*
X1392458Y790375D01*
X1392375Y790000D01*
X1394125D01*
G01X1397267Y792292D02*
X1397017Y792417D01*
X1396725Y792500D01*
X1396392D01*
X1396017Y792375D01*
X1395725Y792167D01*
X1395517Y791917D01*
X1395350Y791500D01*
X1395308Y791125D01*
X1395392Y790750D01*
X1395517Y790500D01*
X1395767Y790250D01*
X1396058Y790083D01*
X1396350Y790000D01*
X1396642D01*
X1396933Y790083D01*
X1397183Y790208D01*
X1397392Y790375D01*
G01X1330292Y785000D02*
Y787500D01*
X1332208Y785000D01*
Y787500D01*
G01X1335100Y785000D02*
Y786667D01*
G01Y786375D02*
X1334933Y786542D01*
X1334683Y786625D01*
X1334392Y786667D01*
X1334100Y786583D01*
X1333850Y786417D01*
X1333683Y786167D01*
X1333600Y785833D01*
X1333683Y785500D01*
X1333850Y785250D01*
X1334100Y785083D01*
X1334392Y785000D01*
X1334683Y785042D01*
X1334933Y785167D01*
X1335100Y785333D01*
G01X1337200Y785000D02*
Y787125D01*
X1337283Y787333D01*
X1337450Y787458D01*
X1337700Y787500D01*
X1337950Y787417D01*
X1338075Y787208D01*
G01X1337575Y786500D02*
X1336742D01*
G01X1340550Y787500D02*
Y785000D01*
G01X1339967Y786667D02*
X1341133D01*
G01X1344400Y785000D02*
Y786667D01*
G01Y786375D02*
X1344233Y786542D01*
X1343983Y786625D01*
X1343692Y786667D01*
X1343400Y786583D01*
X1343150Y786417D01*
X1342983Y786167D01*
X1342900Y785833D01*
X1342983Y785500D01*
X1343150Y785250D01*
X1343400Y785083D01*
X1343692Y785000D01*
X1343983Y785042D01*
X1344233Y785167D01*
X1344400Y785333D01*
G01X1346042Y785000D02*
Y786667D01*
G01Y786250D02*
X1346208Y786458D01*
X1346458Y786625D01*
X1346792Y786667D01*
X1347083Y786625D01*
X1347333Y786458D01*
X1347458Y786167D01*
Y785000D01*
G01X1350600D02*
Y786667D01*
G01Y786375D02*
X1350433Y786542D01*
X1350183Y786625D01*
X1349892Y786667D01*
X1349600Y786583D01*
X1349350Y786417D01*
X1349183Y786167D01*
X1349100Y785833D01*
X1349183Y785500D01*
X1349350Y785250D01*
X1349600Y785083D01*
X1349892Y785000D01*
X1350183Y785042D01*
X1350433Y785167D01*
X1350600Y785333D01*
G01X1352950Y786667D02*
Y785000D01*
G01Y787333D02*
X1352867Y787375D01*
Y787458D01*
X1352950Y787500D01*
X1353033Y787458D01*
Y787375D01*
X1352950Y787333D01*
G01X1356050Y785000D02*
Y787500D01*
G01X1359900Y785000D02*
Y786667D01*
G01Y786375D02*
X1359733Y786542D01*
X1359483Y786625D01*
X1359192Y786667D01*
X1358900Y786583D01*
X1358650Y786417D01*
X1358483Y786167D01*
X1358400Y785833D01*
X1358483Y785500D01*
X1358650Y785250D01*
X1358900Y785083D01*
X1359192Y785000D01*
X1359483Y785042D01*
X1359733Y785167D01*
X1359900Y785333D01*
G01X1364517Y787500D02*
Y785000D01*
X1366183D01*
G01X1367742Y786667D02*
Y785500D01*
X1367908Y785208D01*
X1368158Y785042D01*
X1368450Y785000D01*
X1368742Y785042D01*
X1368992Y785208D01*
X1369158Y785500D01*
G01Y785000D02*
Y786667D01*
G01X1371550D02*
Y785000D01*
G01Y787333D02*
X1371467Y787375D01*
Y787458D01*
X1371550Y787500D01*
X1371633Y787458D01*
Y787375D01*
X1371550Y787333D01*
G01X1374025Y786667D02*
X1375275D01*
X1374025Y785000D01*
X1375275D01*
G01X1378500D02*
Y786667D01*
G01Y786375D02*
X1378333Y786542D01*
X1378083Y786625D01*
X1377792Y786667D01*
X1377500Y786583D01*
X1377250Y786417D01*
X1377083Y786167D01*
X1377000Y785833D01*
X1377083Y785500D01*
X1377250Y785250D01*
X1377500Y785083D01*
X1377792Y785000D01*
X1378083Y785042D01*
X1378333Y785167D01*
X1378500Y785333D01*
G01X1384450Y785000D02*
Y787500D01*
X1382908Y785708D01*
X1384992D01*
G01X1386258Y787083D02*
X1386508Y787333D01*
X1386800Y787458D01*
X1387133Y787500D01*
X1387550Y787417D01*
X1387842Y787208D01*
X1387925Y786958D01*
X1387883Y786708D01*
X1387717Y786500D01*
X1386883Y786083D01*
X1386508Y785792D01*
X1386258Y785375D01*
X1386175Y785000D01*
X1387925D01*
G01X1389358Y787083D02*
X1389608Y787333D01*
X1389900Y787458D01*
X1390233Y787500D01*
X1390650Y787417D01*
X1390942Y787208D01*
X1391025Y786958D01*
X1390983Y786708D01*
X1390817Y786500D01*
X1389983Y786083D01*
X1389608Y785792D01*
X1389358Y785375D01*
X1389275Y785000D01*
X1391025D01*
G01X1394167Y787292D02*
X1393917Y787417D01*
X1393625Y787500D01*
X1393292D01*
X1392917Y787375D01*
X1392625Y787167D01*
X1392417Y786917D01*
X1392250Y786500D01*
X1392208Y786125D01*
X1392292Y785750D01*
X1392417Y785500D01*
X1392667Y785250D01*
X1392958Y785083D01*
X1393250Y785000D01*
X1393542D01*
X1393833Y785083D01*
X1394083Y785208D01*
X1394292Y785375D01*
G01X1320500Y811500D02*
X1329500D01*
G01D02*
Y833500D01*
G01D02*
X1320500D01*
G01D02*
Y811500D01*
G54D11*
G01X1198267Y804500D02*
X1200600Y797000D01*
X1202933Y804500D01*
G01X1205133Y797000D02*
Y804500D01*
X1207467D01*
X1208213Y804125D01*
X1208680Y803625D01*
X1208867Y802625D01*
X1208680Y801625D01*
X1208120Y801000D01*
X1207467Y800625D01*
X1205133D01*
G01X1207467D02*
X1208867Y797000D01*
G01X1213400D02*
Y804500D01*
X1212280Y803000D01*
G01Y797000D02*
X1214520D01*
G01X1181933Y908500D02*
X1182400Y907750D01*
X1182960Y907250D01*
X1183613Y907000D01*
X1184360Y907250D01*
X1184920Y907750D01*
X1185480Y908500D01*
X1185667Y909500D01*
Y914500D01*
G01X1190200Y907000D02*
Y914500D01*
X1189080Y913000D01*
G01Y907000D02*
X1191320D01*
G01X1201933Y824000D02*
Y831500D01*
X1204267D01*
X1205013Y831125D01*
X1205480Y830625D01*
X1205667Y829625D01*
X1205480Y828625D01*
X1204920Y828000D01*
X1204267Y827625D01*
X1201933D01*
G01X1204267D02*
X1205667Y824000D01*
G01X1208427Y827125D02*
X1209080Y828000D01*
X1209640Y828500D01*
X1210387Y828750D01*
X1211040Y828500D01*
X1211507Y828000D01*
X1211880Y827250D01*
X1211973Y826375D01*
X1211880Y825625D01*
X1211507Y824875D01*
X1210947Y824250D01*
X1210293Y824000D01*
X1209547Y824250D01*
X1208893Y825000D01*
X1208520Y826125D01*
X1208427Y827375D01*
X1208613Y829000D01*
X1208893Y829875D01*
X1209360Y830750D01*
X1210013Y831375D01*
X1210667Y831500D01*
X1211320Y831250D01*
X1211787Y830625D01*
G01X1214853Y919875D02*
X1214293Y920250D01*
X1213640Y920500D01*
X1212893D01*
X1212053Y920125D01*
X1211400Y919500D01*
X1210933Y918750D01*
X1210560Y917500D01*
X1210467Y916375D01*
X1210653Y915250D01*
X1210933Y914500D01*
X1211493Y913750D01*
X1212147Y913250D01*
X1212800Y913000D01*
X1213453D01*
X1214107Y913250D01*
X1214667Y913625D01*
X1215133Y914125D01*
G01X1217427Y919250D02*
X1217987Y920000D01*
X1218640Y920375D01*
X1219387Y920500D01*
X1220320Y920250D01*
X1220973Y919625D01*
X1221160Y918875D01*
X1221067Y918125D01*
X1220693Y917500D01*
X1218827Y916250D01*
X1217987Y915375D01*
X1217427Y914125D01*
X1217240Y913000D01*
X1221160D01*
G01X1242933Y823000D02*
Y830500D01*
X1245267D01*
X1246013Y830125D01*
X1246480Y829625D01*
X1246667Y828625D01*
X1246480Y827625D01*
X1245920Y827000D01*
X1245267Y826625D01*
X1242933D01*
G01X1245267D02*
X1246667Y823000D01*
G01X1249427Y829250D02*
X1249987Y830000D01*
X1250640Y830375D01*
X1251387Y830500D01*
X1252320Y830250D01*
X1252973Y829625D01*
X1253160Y828875D01*
X1253067Y828125D01*
X1252693Y827500D01*
X1250827Y826250D01*
X1249987Y825375D01*
X1249427Y824125D01*
X1249240Y823000D01*
X1253160D01*
G01X1252747Y913000D02*
Y920500D01*
X1254613D01*
X1255360Y920125D01*
X1255920Y919625D01*
X1256387Y918875D01*
X1256760Y918000D01*
X1256853Y916750D01*
X1256760Y915500D01*
X1256387Y914625D01*
X1255920Y913875D01*
X1255360Y913375D01*
X1254613Y913000D01*
X1252747D01*
G01X1261200D02*
Y920500D01*
X1260080Y919000D01*
G01Y913000D02*
X1262320D01*
G01X1290933Y837000D02*
Y844500D01*
X1293267D01*
X1294013Y844125D01*
X1294480Y843625D01*
X1294667Y842625D01*
X1294480Y841625D01*
X1293920Y841000D01*
X1293267Y840625D01*
X1290933D01*
G01X1293267D02*
X1294667Y837000D01*
G01X1297147Y838125D02*
X1297707Y837500D01*
X1298360Y837125D01*
X1299200Y837000D01*
X1300040Y837250D01*
X1300693Y837750D01*
X1301160Y838625D01*
X1301253Y839625D01*
X1301067Y840625D01*
X1300600Y841250D01*
X1299947Y841750D01*
X1299293Y841875D01*
X1298640Y841750D01*
X1297800Y841250D01*
X1298080Y844500D01*
X1300600D01*
G01X1275747Y876500D02*
Y871125D01*
X1276120Y870000D01*
X1276867Y869250D01*
X1277800Y869000D01*
X1278733Y869250D01*
X1279480Y870000D01*
X1279853Y871125D01*
Y876500D01*
G01X1282147Y870500D02*
X1282707Y869625D01*
X1283453Y869125D01*
X1284293Y869000D01*
X1285040Y869125D01*
X1285787Y869750D01*
X1286253Y870500D01*
X1286347Y871250D01*
X1286160Y872125D01*
X1285507Y872750D01*
X1284853Y873000D01*
X1284013D01*
G01X1284853D02*
X1285413Y873375D01*
X1285880Y874000D01*
X1286067Y874750D01*
X1285880Y875500D01*
X1285413Y876125D01*
X1284573Y876500D01*
X1283733Y876375D01*
X1282893Y875875D01*
G01X1304747Y792500D02*
Y787125D01*
X1305120Y786000D01*
X1305867Y785250D01*
X1306800Y785000D01*
X1307733Y785250D01*
X1308480Y786000D01*
X1308853Y787125D01*
Y792500D01*
G01X1311427Y791250D02*
X1311987Y792000D01*
X1312640Y792375D01*
X1313387Y792500D01*
X1314320Y792250D01*
X1314973Y791625D01*
X1315160Y790875D01*
X1315067Y790125D01*
X1314693Y789500D01*
X1312827Y788250D01*
X1311987Y787375D01*
X1311427Y786125D01*
X1311240Y785000D01*
X1315160D01*
G01X1318933Y837000D02*
Y844500D01*
X1321267D01*
X1322013Y844125D01*
X1322480Y843625D01*
X1322667Y842625D01*
X1322480Y841625D01*
X1321920Y841000D01*
X1321267Y840625D01*
X1318933D01*
G01X1321267D02*
X1322667Y837000D01*
G01X1328320D02*
Y844500D01*
X1324867Y839125D01*
X1329533D01*
G01X1309050Y915500D02*
X1310450D01*
G01X1309750D02*
Y912000D01*
G01X1309050D02*
X1310450D01*
G01X1315333Y915208D02*
X1314983Y915383D01*
X1314575Y915500D01*
X1314108D01*
X1313583Y915325D01*
X1313175Y915033D01*
X1312883Y914683D01*
X1312650Y914100D01*
X1312592Y913575D01*
X1312708Y913050D01*
X1312883Y912700D01*
X1313233Y912350D01*
X1313642Y912117D01*
X1314050Y912000D01*
X1314458D01*
X1314867Y912117D01*
X1315217Y912292D01*
X1315508Y912525D01*
G01X1317242Y914917D02*
X1317592Y915267D01*
X1318000Y915442D01*
X1318467Y915500D01*
X1319050Y915383D01*
X1319458Y915092D01*
X1319575Y914742D01*
X1319517Y914392D01*
X1319283Y914100D01*
X1318117Y913517D01*
X1317592Y913108D01*
X1317242Y912525D01*
X1317125Y912000D01*
X1319575D01*
G01X1350853Y836875D02*
X1350293Y837250D01*
X1349640Y837500D01*
X1348893D01*
X1348053Y837125D01*
X1347400Y836500D01*
X1346933Y835750D01*
X1346560Y834500D01*
X1346467Y833375D01*
X1346653Y832250D01*
X1346933Y831500D01*
X1347493Y830750D01*
X1348147Y830250D01*
X1348800Y830000D01*
X1349453D01*
X1350107Y830250D01*
X1350667Y830625D01*
X1351133Y831125D01*
G01X1355200Y830000D02*
Y837500D01*
X1354080Y836000D01*
G01Y830000D02*
X1356320D01*
G01X1347800Y880500D02*
Y873000D01*
G01X1345653Y880500D02*
X1349947D01*
G01X1354200Y873000D02*
Y880500D01*
X1353080Y879000D01*
G01Y873000D02*
X1355320D01*
G01X1379933Y846000D02*
Y853500D01*
X1382267D01*
X1383013Y853125D01*
X1383480Y852625D01*
X1383667Y851625D01*
X1383480Y850625D01*
X1382920Y850000D01*
X1382267Y849625D01*
X1379933D01*
G01X1382267D02*
X1383667Y846000D01*
G01X1388200D02*
Y853500D01*
X1387080Y852000D01*
G01Y846000D02*
X1389320D01*
G01X1377933Y902000D02*
Y909500D01*
X1380267D01*
X1381013Y909125D01*
X1381480Y908625D01*
X1381667Y907625D01*
X1381480Y906625D01*
X1380920Y906000D01*
X1380267Y905625D01*
X1377933D01*
G01X1380267D02*
X1381667Y902000D01*
G01X1384147Y903500D02*
X1384707Y902625D01*
X1385453Y902125D01*
X1386293Y902000D01*
X1387040Y902125D01*
X1387787Y902750D01*
X1388253Y903500D01*
X1388347Y904250D01*
X1388160Y905125D01*
X1387507Y905750D01*
X1386853Y906000D01*
X1386013D01*
G01X1386853D02*
X1387413Y906375D01*
X1387880Y907000D01*
X1388067Y907750D01*
X1387880Y908500D01*
X1387413Y909125D01*
X1386573Y909500D01*
X1385733Y909375D01*
X1384893Y908875D01*
G01X1374933Y924000D02*
Y931500D01*
X1377267D01*
X1378013Y931125D01*
X1378480Y930625D01*
X1378667Y929625D01*
X1378480Y928625D01*
X1377920Y928000D01*
X1377267Y927625D01*
X1374933D01*
G01X1377267D02*
X1378667Y924000D01*
G01X1383013D02*
X1383200Y925625D01*
X1383480Y927000D01*
X1383853Y928250D01*
X1384320Y929625D01*
X1385067Y931500D01*
X1381333D01*
G01X1374933Y942000D02*
Y949500D01*
X1377267D01*
X1378013Y949125D01*
X1378480Y948625D01*
X1378667Y947625D01*
X1378480Y946625D01*
X1377920Y946000D01*
X1377267Y945625D01*
X1374933D01*
G01X1377267D02*
X1378667Y942000D01*
G01X1383200D02*
X1383853Y942125D01*
X1384600Y942500D01*
X1385067Y943125D01*
X1385253Y944000D01*
X1385067Y944875D01*
X1384507Y945625D01*
X1383667Y946000D01*
X1382733D01*
X1382173Y946250D01*
X1381707Y946875D01*
X1381520Y947750D01*
X1381800Y948625D01*
X1382453Y949250D01*
X1383200Y949500D01*
X1383947Y949250D01*
X1384600Y948625D01*
X1384880Y947750D01*
X1384693Y946875D01*
X1384227Y946250D01*
X1383667Y946000D01*
X1382733D01*
X1381893Y945625D01*
X1381333Y944875D01*
X1381147Y944000D01*
X1381333Y943125D01*
X1381800Y942500D01*
X1382547Y942125D01*
X1383200Y942000D01*
G01X1402733Y939000D02*
Y946500D01*
X1404973D01*
X1405720Y946125D01*
X1406280Y945250D01*
X1406467Y944250D01*
X1406280Y943250D01*
X1405813Y942500D01*
X1404973Y942125D01*
X1402733D01*
G01X1409227Y946500D02*
X1412773D01*
X1409227Y939000D01*
X1412773D01*
G01X1417400D02*
Y946500D01*
X1416280Y945000D01*
G01Y939000D02*
X1418520D01*
G54D12*
G01X1369661Y870913D02*
Y869732D01*
X1364543D01*
G01X1369661Y877213D02*
Y878394D01*
X1364543D01*
M02*
