G04 ================== begin FILE IDENTIFICATION RECORD ==================*
G04 Layout Name:  C:/Users/Bianca/Desktop/Placa rutata-detector de cutremur.brd*
G04 Film Name:    TOP*
G04 File Format:  Gerber RS274X*
G04 File Origin:  Cadence Allegro 17.2-S025*
G04 Origin Date:  Sat Jun 03 21:54:06 2023*
G04 *
G04 Layer:  ETCH/TOP*
G04 Layer:  PIN/TOP*
G04 Layer:  VIA CLASS/TOP*
G04 *
G04 Offset:    (0.00 0.00)*
G04 Mirror:    No*
G04 Mode:      Positive*
G04 Rotation:  0*
G04 FullContactRelief:  No*
G04 UndefLineWidth:     8.00*
G04 ================== end FILE IDENTIFICATION RECORD ====================*
%FSLAX25Y25*MOIN*%
%IR0*IPPOS*OFA0.00000B0.00000*MIA0B0*SFA1.00000B1.00000*%
%ADD14C,.024*%
%ADD11C,.06*%
%ADD10C,.028*%
%ADD12C,.065*%
%ADD13R,.06X.06*%
%ADD16R,.03346X.03346*%
%ADD15R,.025X.05*%
%ADD17R,.02835X.03898*%
%ADD18C,.04*%
%ADD19C,.016*%
G75*
%LPD*%
G75*
G54D10*
X1185000Y775000D03*
Y965000D03*
X1415000Y775000D03*
Y965000D03*
G54D11*
X1186000Y923000D03*
Y933000D03*
X1228000Y796000D03*
X1217000Y936000D03*
X1227000D03*
X1238000Y786000D03*
X1248000Y796000D03*
X1257000Y936000D03*
X1267000D03*
X1316000Y776000D03*
X1306000D03*
X1295000Y858000D03*
X1305000D03*
X1315000D03*
X1295000Y888000D03*
X1305000D03*
X1315000D03*
X1325000Y858000D03*
X1414000Y920000D03*
Y930000D03*
G54D12*
X1207000Y840000D03*
Y880000D03*
X1248000Y840000D03*
Y880000D03*
X1365000Y812000D03*
Y832000D03*
X1397000Y812000D03*
Y852000D03*
Y865000D03*
Y905000D03*
G54D13*
X1295000Y816000D03*
Y829000D03*
X1325000D03*
Y816000D03*
Y888000D03*
G54D14*
G01X1309500Y926250D02*
Y913500D01*
G01Y954000D02*
Y945750D01*
G01X1324500Y926250D02*
X1342000D01*
G01X1363283Y945000D02*
X1342000D01*
G01X1361000Y878000D02*
Y892000D01*
X1305000Y816000D03*
X1315000Y906000D03*
X1337000Y829000D03*
X1339000Y854000D03*
X1333000Y865000D03*
X1342000Y926250D03*
Y945000D03*
Y958000D03*
G54D15*
X1309500Y926250D03*
X1314500D03*
X1319500D03*
X1314500Y945750D03*
X1309500D03*
X1319500D03*
X1324500Y926250D03*
Y945750D03*
G54D16*
X1361000Y869732D03*
X1369268Y874063D03*
X1361000Y878000D03*
G54D17*
X1364283Y927000D03*
X1369717D03*
X1368717Y945000D03*
X1363283D03*
G54D18*
G01X1207000Y840000D02*
X1186000Y861000D01*
Y923000D01*
G01X1228000Y796000D02*
X1248000D01*
G01X1207000Y840000D02*
X1248000D01*
G01D02*
Y796000D01*
G01X1315000Y858000D02*
X1297000Y840000D01*
X1248000D01*
G01X1295000Y899000D02*
X1275000D01*
X1257000Y917000D01*
Y936000D01*
G01X1309500Y913500D02*
X1295000Y899000D01*
G01D02*
Y888000D01*
G01X1342000Y958000D02*
X1313500D01*
X1309500Y954000D01*
G01X1361000Y892000D02*
X1374000Y905000D01*
X1397000D01*
G54D19*
G01X1227000Y936000D02*
X1234000Y943000D01*
X1284000D01*
X1287000Y940000D01*
X1313000D01*
X1314500Y941500D01*
Y945750D01*
G01X1306000Y786000D02*
X1238000D01*
G01X1248000Y880000D02*
X1305000D01*
G01X1364283Y927000D02*
Y933717D01*
X1362000Y936000D01*
X1267000D01*
G01X1306000Y776000D02*
Y786000D01*
G01X1365000Y832000D02*
X1352000D01*
X1306000Y786000D01*
G01X1295000Y829000D02*
X1310000D01*
X1320000Y839000D01*
X1335000D01*
X1361000Y865000D01*
Y869732D01*
G01X1295000Y816000D02*
X1305000D01*
G01D02*
X1325000D01*
G01X1315000Y906000D02*
X1324000Y897000D01*
X1334000D01*
X1357073Y873927D01*
X1366159D01*
X1366295Y874063D01*
X1369268D01*
G01X1339000Y854000D02*
Y873000D01*
X1332000Y880000D01*
X1316600D01*
X1315000Y881600D01*
Y888000D01*
G01X1305000Y880000D02*
Y888000D01*
G01X1333000Y865000D02*
Y870000D01*
X1328000Y875000D01*
X1311000D01*
X1306000Y880000D01*
X1305000D01*
G01X1314500Y926250D02*
Y906500D01*
X1315000Y906000D01*
G01X1319500Y926250D02*
Y918500D01*
X1322000Y916000D01*
X1365000D01*
X1369717Y920717D01*
Y927000D01*
G01X1368717Y945000D02*
Y949283D01*
X1365999Y952001D01*
X1319500D01*
G01D02*
Y945750D01*
G01Y952001D02*
X1316100D01*
X1314500Y950401D01*
Y945750D01*
G01X1337000Y829000D02*
X1325000D01*
G01X1397000Y852000D02*
X1360000D01*
X1337000Y829000D01*
G01X1365000Y812000D02*
X1397000D01*
G01X1414000Y930000D02*
X1410959Y926959D01*
X1406741D01*
X1406700Y927000D01*
X1369717D01*
M02*
