M48
INCH,TZ
T01C.013
T02C.036
T03C.042
T04C.128
;LEADER: 12 
;HEADER: 
;CODE  : ASCII 
;FILE  : NC_Drill_Detector_de_cutremur-1-2.drl for board C:/Users/Bianca/Desktop/#Taaaaae04400.tmp ... layers TOP and BOTTOM
;T01 Holesize 1. = 13.000000 Tolerance = +0.000000/-0.000000 PLATED MILS Quantity = 8
;T02 Holesize 2. = 36.000000 Tolerance = +0.000000/-0.000000 PLATED MILS Quantity = 18
;T03 Holesize 3. = 42.000000 Tolerance = +0.000000/-0.000000 PLATED MILS Quantity = 13
;T04 Holesize 4. = 128.000000 Tolerance = +0.000000/-0.000000 NON_PLATED MILS Quantity = 4
%
G90
T01
X1305000Y816000
X1337000Y829000
X1339000Y854000
X1333000Y865000
X1315000Y906000
X1342000Y926250
X1342000Y945000
X1342000Y958000
T02
X1306000Y776000
X1316000Y776000
X1295000Y858000
R03X10000
X1414000Y930000
X1414000Y920000
X1325000Y888000
R03X-10000
X1267000Y936000
X1257000Y936000
X1227000Y936000
X1217000Y936000
X1186000Y933000
X1186000Y923000
T03
X1207000Y880000
X1207000Y840000
X1228000Y796000
X1238000Y786000
X1248000Y796000
X1248000Y840000
X1248000Y880000
X1365000Y832000
X1365000Y812000
X1397000Y812000
X1397000Y852000
X1397000Y865000
X1397000Y905000
T04
X1185000Y775000
X1185000Y965000
X1415000Y965000
X1415000Y775000
M30
